<svg xmlns="http://www.w3.org/2000/svg" width="21" height="21" viewBox="0 0 21 21">
    <path fill="#FFF" fill-rule="nonzero" d="M20.095 18.049c-.005 0-.005.005 0 0-.2.214-.404.408-.624.622-.333.316-.67.647-.988 1.019-.517.55-1.126.81-1.924.81-.077 0-.159 0-.236-.005-1.52-.097-2.933-.688-3.992-1.192-2.897-1.397-5.441-3.379-7.555-5.89-1.745-2.095-2.912-4.031-3.685-6.11-.476-1.27-.65-2.258-.574-3.19.052-.596.282-1.09.707-1.514L2.969.862C3.22.627 3.486.5 3.747.5c.323 0 .584.194.747.357l.016.015c.312.29.609.591.921.912.159.163.323.326.486.494L7.315 3.67c.542.54.542 1.04 0 1.58-.149.148-.292.296-.44.438-.43.438-.84.846-1.285 1.244-.01.01-.02.015-.026.025-.44.438-.358.866-.266 1.157l.015.046c.364.876.876 1.702 1.654 2.685l.005.005c1.412 1.733 2.902 3.083 4.545 4.117.21.133.425.24.63.342.184.091.358.178.506.27.02.01.041.025.062.035.174.087.338.128.506.128.425 0 .691-.265.778-.352l1.75-1.743c.175-.173.451-.382.774-.382.317 0 .578.2.737.372l.01.01 2.82 2.808c.528.52.528 1.055.005 1.595z"/>
</svg>
